<svg width="25" height="25" viewBox="0 0 25 25" fill="none" xmlns="http://www.w3.org/2000/svg">
<ellipse cx="12.3254" cy="12.8846" rx="12.3254" ry="12.115" fill="#F36339"/>
<path d="M6.33014 10.8467L12.3518 13.925C12.4122 13.9559 12.4793 13.972 12.5473 13.972C12.6154 13.972 12.6825 13.9559 12.7429 13.925L18.7646 10.8472V16.1944C18.7646 16.6556 18.5851 17.0993 18.2628 17.4346C17.9406 17.7698 17.5001 17.9711 17.0316 17.9972L16.9277 18H8.16704C7.69785 18 7.24643 17.8236 6.90538 17.5068C6.56434 17.1901 6.35953 16.7571 6.33297 16.2967L6.33014 16.1944V10.8467ZM8.16704 8H16.9277C17.3968 7.99997 17.8483 8.17642 18.1893 8.49315C18.5304 8.80988 18.7352 9.24289 18.7617 9.70333L18.7646 9.80556V9.90778L12.5473 13.0856L6.33014 9.90778V9.80556C6.33011 9.34437 6.50962 8.90065 6.83185 8.56543C7.15408 8.2302 7.5946 8.02889 8.06304 8.00278L8.16704 8Z" fill="white"/>
</svg>
