<svg width="25" height="25" viewBox="0 0 25 25" fill="none" xmlns="http://www.w3.org/2000/svg">
<path d="M21.0394 3.54712C16.2253 -1.18337 8.42132 -1.18224 3.6087 3.54972C-1.20392 8.28168 -1.20276 15.9525 3.61135 20.683C8.42546 25.4135 16.2294 25.4123 21.042 20.6804C23.3533 18.4078 24.6515 15.3258 24.6507 12.1124C24.6501 8.89959 23.351 5.81859 21.0394 3.54712ZM18.6663 16.8761C18.6658 16.8766 18.6653 16.8772 18.6647 16.8777V16.8737L18.0402 17.4835C17.2326 18.2874 16.0563 18.6181 14.9383 18.3557C13.8119 18.0594 12.7412 17.5877 11.7666 16.9585C10.8612 16.3897 10.0221 15.7248 9.26455 14.9757C8.56754 14.2956 7.94135 13.5488 7.39518 12.7465C6.79779 11.8832 6.32495 10.9428 5.99009 9.95194C5.60623 8.78796 5.92433 7.51072 6.8118 6.65263L7.54309 5.93383C7.74641 5.73308 8.07679 5.73237 8.28097 5.93222C8.2815 5.93274 8.28208 5.93326 8.28261 5.93383L10.5915 8.20336C10.7958 8.40321 10.7965 8.72795 10.5932 8.92865C10.5927 8.92917 10.5921 8.92969 10.5915 8.93026L9.23575 10.2629C8.84674 10.6411 8.79782 11.2421 9.12073 11.6763C9.6111 12.3378 10.1538 12.9603 10.7436 13.538C11.4012 14.1872 12.1161 14.7778 12.88 15.3028C13.3213 15.6054 13.9197 15.5544 14.3015 15.1817L15.6121 13.8732C15.8154 13.6725 16.1458 13.6718 16.3499 13.8716C16.3505 13.8721 16.351 13.8727 16.3516 13.8732L18.6647 16.1509C18.8689 16.3507 18.8697 16.6754 18.6663 16.8761Z" fill="#F36339"/>
</svg>
