<svg width="113" height="137" viewBox="0 0 113 137" fill="none" xmlns="http://www.w3.org/2000/svg">
<path d="M100.18 68.196C102.28 52.54 90.1 42.24 77.5 42.24C67.42 42.24 59.02 48.42 55.66 57.072C52.72 55.424 49.36 54.6 46 54.6C34.24 54.6 25 63.664 25 75.2C25 86.736 34.24 95.8 46 95.8H54.4C56.92 95.8 58.6 94.152 58.6 91.68C58.6 89.208 56.92 87.56 54.4 87.56H46C38.86 87.56 33.4 82.204 33.4 75.2C33.4 68.196 38.86 62.84 46 62.84C49.78 62.84 53.14 64.488 55.24 66.96C59.02 70.668 62.8 66.96 62.8 64.488C63.22 56.66 69.52 50.48 77.5 50.48C85.48 50.48 95.14 58.308 91.36 69.844C90.94 71.08 90.94 74.788 94.72 75.2C98.08 75.612 100.6 78.084 100.6 81.38C100.6 84.676 97.66 87.56 94.3 87.56H88C85.48 87.56 83.8 89.208 83.8 91.68C83.8 94.152 85.48 95.8 88 95.8H94.3C102.28 95.8 109 89.208 109 81.38C109 75.612 105.64 70.668 100.18 68.196Z" fill="#F36339"/>
<path d="M80.86 105.276L75.4 110.632V79.32C75.4 76.848 73.72 75.2 71.2 75.2C68.68 75.2 67 76.848 67 79.32V110.632L61.54 105.276C59.86 103.628 57.34 103.628 55.66 105.276C53.98 106.924 53.98 109.396 55.66 111.044L68.26 123.404C70.36 125.464 73.3 124.64 74.14 123.404L86.74 111.044C88.42 109.396 88.42 106.924 86.74 105.276C85.06 103.628 82.54 103.628 80.86 105.276Z" fill="#F36339"/>
<path d="M67.1829 18.1927H69.8171V20.8153C69.8171 21.4628 70.3535 22 71 22C71.6465 22 72.1829 21.4628 72.1829 20.8153V18.1927H74.8171C75.4636 18.1927 76 17.6554 76 17.0079C76 16.3604 75.4636 15.8232 74.8171 15.8232H72.1829V13.1847C72.1829 12.5372 71.6465 12 71 12C70.3535 12 69.8171 12.5372 69.8171 13.1847V15.8232H67.1829C66.5364 15.8232 66 16.3604 66 17.0079C66 17.6554 66.5364 18.1927 67.1829 18.1927Z" fill="#C9C1F5"/>
<path d="M11.0127 1.92223C11.0461 1.7086 11.3809 1.6753 11.457 1.87772C12.0488 3.45293 13.4438 6.70954 15.3608 8.26993C17.1812 9.75173 20.5926 10.6062 22.2778 10.9558C22.4925 11.0004 22.5064 11.349 22.2964 11.4119C20.5821 11.9261 17.0596 13.1761 15.4596 15.1524C14.0702 16.8685 13.4907 19.9227 13.2593 21.7564C13.23 21.9885 12.7897 22.0253 12.7219 21.8014C12.1862 20.0329 11.0936 17.124 9.38166 15.6904C7.61278 14.2092 4.27773 13.5455 2.38706 13.2768C2.15783 13.2442 2.12708 12.8179 2.34841 12.7499C4.15943 12.1939 7.30264 10.9702 8.77639 8.85279C10.091 6.9641 10.7558 3.56312 11.0127 1.92223Z" fill="#5DCBA0"/>
<path d="M27.9281 128.954L30.2094 130.272L28.8981 132.543C28.5743 133.104 28.7702 133.837 29.3301 134.16C29.89 134.484 30.6231 134.286 30.9469 133.726L32.2582 131.454L34.5395 132.772C35.0994 133.095 35.8325 132.898 36.1563 132.337C36.4801 131.776 36.2842 131.043 35.7243 130.72L33.4429 129.402L34.7622 127.117C35.0859 126.557 34.89 125.823 34.3301 125.5C33.7702 125.177 33.0371 125.374 32.7134 125.935L31.3941 128.22L29.1128 126.902C28.5529 126.579 27.8198 126.776 27.496 127.337C27.1723 127.898 27.3682 128.631 27.9281 128.954Z" fill="#FEF07E"/>
<path d="M104.183 104.193H106.817V106.815C106.817 107.463 107.354 108 108 108C108.647 108 109.183 107.463 109.183 106.815V104.193H111.817C112.464 104.193 113 103.655 113 103.008C113 102.36 112.464 101.823 111.817 101.823H109.183V99.1847C109.183 98.5372 108.647 98 108 98C107.354 98 106.817 98.5372 106.817 99.1847V101.823H104.183C103.536 101.823 103 102.36 103 103.008C103 103.655 103.536 104.193 104.183 104.193Z" fill="#5DCBA0"/>
</svg>
