<svg width="184" height="184" viewBox="0 0 184 184" fill="none" xmlns="http://www.w3.org/2000/svg">
<g clip-path="url(#clip0_0_121)">
<path d="M119.791 140.578C119.873 140.377 120.205 140.422 120.231 140.636C120.452 142.436 121.109 146.387 122.796 148.59C124.399 150.684 127.939 152.501 129.624 153.285C129.822 153.378 129.757 153.718 129.538 153.73C127.61 153.834 123.403 154.258 121.141 156C119.162 157.524 117.736 160.778 117.036 162.669C116.955 162.888 116.524 162.823 116.511 162.589C116.402 160.576 115.99 157.05 114.482 155.022C112.927 152.932 109.392 151.341 107.458 150.59C107.242 150.506 107.31 150.09 107.541 150.077C109.596 149.958 113.408 149.471 115.582 147.531C117.51 145.81 119.116 142.237 119.791 140.578Z" fill="#5DCBA0"/>
<path d="M33.7499 15.8684L35.8608 17.8653L33.8727 19.9668C33.3818 20.4857 33.4043 21.3228 33.9224 21.8129C34.4404 22.303 35.2775 22.2791 35.7683 21.7602L37.7564 19.6587L39.8673 21.6557C40.3853 22.1458 41.2223 22.1219 41.7132 21.603C42.2041 21.0842 42.1815 20.2471 41.6635 19.757L39.5526 17.7601L41.5528 15.6459C42.0436 15.127 42.0211 14.2899 41.503 13.7999C40.985 13.3098 40.148 13.3336 39.6571 13.8525L37.657 15.9667L35.5461 13.9697C35.0281 13.4796 34.1911 13.5035 33.7002 14.0224C33.2093 14.5412 33.2319 15.3783 33.7499 15.8684Z" fill="#FEF07E"/>
<path d="M157.281 73.007L160.048 73.6667L159.485 76.0277C159.346 76.6106 159.794 77.2286 160.473 77.3905C161.152 77.5524 161.83 77.2031 161.969 76.6202L162.532 74.2592L165.299 74.9189C165.978 75.0808 166.657 74.7315 166.796 74.1486C166.935 73.5657 166.487 72.9477 165.808 72.7858L163.041 72.1261L163.607 69.7509C163.746 69.1679 163.298 68.55 162.619 68.3881C161.94 68.2262 161.262 68.5755 161.123 69.1584L160.556 71.5336L157.79 70.8739C157.111 70.712 156.432 71.0613 156.293 71.6442C156.154 72.2271 156.602 72.8451 157.281 73.007Z" fill="#C9C1F5"/>
<path d="M49.9437 115.851L52.0031 116.342L51.5142 118.392C51.3935 118.899 51.7127 119.419 52.2181 119.539C52.7235 119.66 53.243 119.34 53.3637 118.833L53.8526 116.783L55.9121 117.274C56.4175 117.395 56.937 117.075 57.0577 116.568C57.1784 116.062 56.8592 115.542 56.3538 115.422L54.2943 114.931L54.7862 112.868C54.9069 112.362 54.5877 111.842 54.0823 111.721C53.5769 111.601 53.0574 111.921 52.9367 112.427L52.4448 114.49L50.3854 113.998C49.88 113.878 49.3605 114.198 49.2398 114.704C49.1191 115.21 49.4382 115.73 49.9437 115.851Z" fill="#5DCBA0"/>
<g clip-path="url(#clip1_0_121)">
<path d="M126.185 83.4296C114.084 57.9564 83.7956 47.0579 58.2393 58.9816C56.017 60.0184 53.5611 59.1348 52.5089 56.9197C51.4568 54.7047 52.3343 52.2657 54.5566 51.2289C84.5574 37.2316 120.167 50.0447 133.963 79.8006C135.015 82.0157 134.137 84.4546 131.915 85.4915C129.693 86.5283 127.237 85.6446 126.185 83.4296Z" fill="#F36339"/>
<path d="M110.219 90.5401C102.182 74.3337 82.5348 67.2644 66.4233 74.7815C64.201 75.8183 61.7451 74.9347 60.6929 72.7196C59.6407 70.5045 60.5183 68.0656 62.7406 67.0288C83.443 57.0315 108.411 66.0154 117.997 86.9112C119.05 89.1262 118.172 91.5652 115.95 92.602C113.727 93.6388 111.272 92.7552 110.219 90.5401Z" fill="#F36339"/>
<path d="M94.3709 98.611C90.6882 90.8583 81.6834 87.6182 74.3147 91.3944C72.0924 92.4312 69.6366 91.5476 68.5844 89.3325C67.5322 87.1175 68.556 84.2721 70.7783 83.2352C82.7378 76.9788 97.0636 82.1335 102.295 94.5756C103.347 96.7906 102.324 99.636 100.101 100.673C97.8789 101.71 95.4231 100.826 94.3709 98.611Z" fill="#F36339"/>
<circle cx="80.2042" cy="106.054" r="7" transform="rotate(19.7896 80.2042 106.054)" fill="#F36339"/>
</g>
</g>
<defs>
<clipPath id="clip0_0_121">
<rect width="152.705" height="152.705" fill="white" transform="translate(35.4194) rotate(13.4118)"/>
</clipPath>
<clipPath id="clip1_0_121">
<rect width="87" height="108" fill="white" transform="translate(66.5653 14) rotate(19.7896)"/>
</clipPath>
</defs>
</svg>
